# xmcd
#
# Track frame offsets: 
#        150
#        22621
#        45403
#        67031
#        106767
#        157867
#        184549
#        208489
#        251237
#        267613
#        328099
#
# Disc length: 4444 seconds
#
# Revision: 0
# Processed by: cddbd v1.5.2PL0 Copyright (c) Steve Scherf et al.
# Submitted via: ExactAudioCopy v0.95b4
#
DISCID=96115a0b
DTITLE=Etta James - 1989-03-13 Disc 1
DYEAR=1989
DGENRE=Blues
TTITLE0=01 Insturmental
TTITLE1=02 Hip Hug Her
TTITLE2=03 Tell Mama
TTITLE3=04 I'd Rather Go Blind
TTITLE4=05 Something's Got A Hold On Me
TTITLE5=06 Damn Your Eyes
TTITLE6=07 Feel Like Breaking Up Somebodys Home
TTITLE7=08 All I Could Do Is Cry
TTITLE8=09 Stop The Wedding
TTITLE9=10 Baby What You Want Me To Do
TTITLE10=11 Take It To The Limit
EXTD=
EXTT0=
EXTT1=
EXTT2=
EXTT3=
EXTT4=
EXTT5=
EXTT6=
EXTT7=
EXTT8=
EXTT9=
EXTT10=
PLAYORDER=
